<?xml version="1.0" encoding="UTF-8"?>
<svg id="_レイヤー_1" data-name="レイヤー 1" xmlns="http://www.w3.org/2000/svg" xmlns:xlink="http://www.w3.org/1999/xlink" viewBox="0 0 7467.82 8621.8">
  <defs>
    <style>
      .cls-1 {
        fill: #fff;
      }

      .cls-2 {
        fill: #231815;
      }

      .cls-3 {
        fill: url(#_名称未設定グラデーション_70);
      }
    </style>
    <linearGradient id="_名称未設定グラデーション_70" data-name="名称未設定グラデーション 70" x1="1182.97" y1="1152.06" x2="6147.64" y2="6116.73" gradientUnits="userSpaceOnUse">
      <stop offset="0" stop-color="#000000"/>
      <stop offset=".45" stop-color="#55b332"/>
      <stop offset="1" stop-color="#8cc444"/>
    </linearGradient>
  </defs>
  <g>
    <path class="cls-2" d="M0,8047.55v-3.11c0-308.98,240.67-562.07,569.83-562.07,195.64,0,313.64,52.79,426.99,149.06l-150.61,181.66c-83.85-69.87-158.37-110.24-284.14-110.24-173.9,0-312.09,153.72-312.09,338.49v3.11c0,198.74,136.64,344.7,329.17,344.7,86.95,0,164.58-21.74,225.14-65.21v-155.27h-240.67v-206.51h472.02v252.51c0,218.99-179.24,395.52-398.21,392.34-20.89-.3-42.83-.49-66.05-.49-338.49,0-571.39-237.56-571.39-558.97Z"/>
    <path class="cls-2" d="M1238.92,8303.52v-538.78h236.01v464.25c0,111.79,52.79,169.24,142.85,169.24s147.51-57.45,147.51-169.24v-464.25h236.01v832.24h-236.01v-118c-54.34,69.87-237.26,174.72-349.5,133.53-175.07-64.24-176.86-118-176.86-308.98Z"/>
    <path class="cls-2" d="M2172.06,8185.51v-3.11c0-237.56,169.24-433.2,411.46-433.2,277.93,0,405.25,215.82,405.25,451.83,0,18.63-1.55,40.37-3.11,62.11h-579.15c23.29,107.14,97.82,163.03,203.4,163.03,79.19,0,136.64-24.84,201.85-85.4l162.25.57c7.96,91.71-185.48,268.04-337.64,271.15-249.93,5.1-464.31-172.35-464.31-426.99ZM2758.97,8115.64c-13.97-105.58-76.08-177.01-175.45-177.01s-161.48,69.87-180.11,177.01h355.56Z"/>
    <path class="cls-2" d="M3098.99,8486.73l100.92-155.27c90.06,65.21,184.77,99.37,262.4,99.37,68.32,0,99.37-24.84,99.37-62.11v-3.11c0-51.24-80.74-68.32-172.35-96.27-116.45-34.16-248.43-88.5-248.43-249.98v-3.11c0-169.24,136.64-263.96,304.33-263.96,105.58,0,220.48,35.71,310.54,96.27l-90.06,163.03c-82.29-48.13-164.58-77.63-225.14-77.63s-86.95,24.84-86.95,57.45v3.11c0,46.58,79.19,68.32,169.24,99.37,116.45,38.82,251.53,94.71,251.53,246.88v3.11c0,184.77-138.19,268.61-318.3,268.61-116.45,0-246.88-38.82-357.12-125.77Z"/>
    <path class="cls-2" d="M3862.92,8486.73l100.92-155.27c90.06,65.21,184.77,99.37,262.4,99.37,68.32,0,99.37-24.84,99.37-62.11v-3.11c0-51.24-80.74-68.32-172.35-96.27-116.45-34.16-248.43-88.5-248.43-249.98v-3.11c0-169.24,136.64-263.96,304.33-263.96,105.58,0,220.48,35.71,310.54,96.27l-90.06,163.03c-82.29-48.13-164.58-77.63-225.14-77.63s-86.95,24.84-86.95,57.45v3.11c0,46.58,79.19,68.32,169.24,99.37,116.45,38.82,251.53,94.71,251.53,246.88v3.11c0,184.77-138.19,268.61-318.3,268.61-116.45,0-246.88-38.82-357.12-125.77Z"/>
    <path class="cls-2" d="M4707.57,7463.51h236.01v419.22c54.34-69.87,124.21-133.53,243.77-133.53,178.56,0,282.59,118,282.59,308.98v538.78h-236.01v-464.25c0-111.79-52.79-169.24-142.85-169.24s-147.5,57.45-147.5,169.24v464.25h-236.01v-1133.46Z"/>
    <path class="cls-2" d="M5668.65,8303.52v-538.78h236.01v464.25c0,111.79,52.79,169.24,142.85,169.24s147.5-57.45,147.5-169.24v-464.25h236.01v832.24h-236.01v-118c-54.34,69.87-124.21,133.53-243.77,133.53-178.56,0-282.59-118-282.59-308.98Z"/>
    <path class="cls-2" d="M6829.66,8494.99v108.69h-236.01v-1133.46h236.01v420.78c57.45-77.63,136.64-135.08,259.3-135.08,194.09,0,378.86,152.16,378.86,430.09v3.11c0,277.93-181.66,430.09-378.86,430.09-125.77,0-203.4-57.45-259.3-124.21ZM7231.81,8189.11v-3.11c0-138.19-93.16-229.8-203.4-229.8s-201.85,91.61-201.85,229.8v3.11c0,138.19,91.61,229.8,201.85,229.8s203.4-90.06,203.4-229.8Z"/>
  </g>
  <g>
    <polygon class="cls-3" points="6812.78 1817.18 3665.29 0 517.82 1817.21 517.83 5451.6 3665.32 7268.79 6812.79 5451.58 6812.78 1817.18"/>
    <path class="cls-1" d="M2560.22,3878.43v-5.8c0-577.17,449.55-1049.92,1064.42-1049.93,365.44,0,585.87,98.61,797.59,278.43l-281.33,339.34c-156.62-130.51-295.84-205.92-530.76-205.92-324.84,0-582.97,287.14-582.97,632.28v5.8c0,371.24,255.23,643.87,614.87,643.87,162.42,0,307.44-40.61,420.55-121.82v-290.03s-449.55,0-449.55,0v-385.74s881.7,0,881.7,0v471.67c0,409.06-334.81,738.82-743.82,732.88-39.02-.57-80-.91-123.37-.91-632.27,0-1067.33-443.75-1067.33-1044.12Z"/>
  </g>
</svg>
