<?xml version="1.0" encoding="UTF-8"?>
<svg id="_レイヤー_1" data-name="レイヤー 1" xmlns="http://www.w3.org/2000/svg" xmlns:xlink="http://www.w3.org/1999/xlink" viewBox="0 0 6294.97 7268.79">
  <defs>
    <style>
      .cls-1 {
        fill: #fff;
      }

      .cls-2 {
        fill: url(#_名称未設定グラデーション_69);
      }
    </style>
    <linearGradient id="_名称未設定グラデーション_69" data-name="名称未設定グラデーション 69" x1="665.15" y1="1152.06" x2="5629.82" y2="6116.73" gradientUnits="userSpaceOnUse">
      <stop offset="0" stop-color="#00913a"/>
      <stop offset=".45" stop-color="#55b332"/>
      <stop offset="1" stop-color="#8cc444"/>
    </linearGradient>
  </defs>
  <polygon class="cls-2" points="6294.96 1817.18 3147.47 0 0 1817.21 .01 5451.6 3147.5 7268.79 6294.97 5451.58 6294.96 1817.18"/>
  <path class="cls-1" d="M2039.6,3878.92v-5.8c0-577.17,449.55-1049.92,1064.42-1049.93,365.44,0,845.38,347.67,875.7,638.7l-359.44-20.93c-156.62-130.51-295.84-205.92-530.76-205.92-324.84,0-582.97,287.14-582.97,632.28v5.8c0,371.24,255.23,643.87,614.87,643.87,162.42,0,307.44-40.61,420.55-121.82v-290.03s-449.55,0-449.55,0v-385.74s881.7,0,881.7,0v471.67c-70.2,419.8-18.66,506.72-418.83,704.76-34.98,17.31-404.99,27.21-448.37,27.21-632.27,0-1067.33-443.75-1067.33-1044.12Z"/>
</svg>