<?xml version="1.0" encoding="UTF-8"?>
<svg id="_レイヤー_1" data-name="レイヤー 1" xmlns="http://www.w3.org/2000/svg" xmlns:xlink="http://www.w3.org/1999/xlink" viewBox="0 0 10000 10000">
  <defs>
    <style>
      .cls-1 {
        fill: url(#_名称未設定グラデーション_56-8);
      }

      .cls-2 {
        fill: url(#_名称未設定グラデーション_56-4);
      }

      .cls-3 {
        fill: url(#_名称未設定グラデーション_56-2);
      }

      .cls-4 {
        fill: url(#_名称未設定グラデーション_56-5);
      }

      .cls-5 {
        fill: url(#_名称未設定グラデーション_56-3);
      }

      .cls-6 {
        fill: url(#_名称未設定グラデーション_56-7);
      }

      .cls-7 {
        fill: url(#_名称未設定グラデーション_56-6);
      }

      .cls-8 {
        fill: url(#_名称未設定グラデーション_56);
      }
    </style>
    <linearGradient id="_名称未設定グラデーション_56" data-name="名称未設定グラデーション 56" x1="1266.09" y1="5002.05" x2="2301.73" y2="5002.05" gradientUnits="userSpaceOnUse">
      <stop offset="0" stop-color="#e0e1e1"/>
      <stop offset="1" stop-color="#fbfbfb"/>
    </linearGradient>
    <linearGradient id="_名称未設定グラデーション_56-2" data-name="名称未設定グラデーション 56" x1="2505.01" y1="5150.61" x2="3267.38" y2="5150.61" xlink:href="#_名称未設定グラデーション_56"/>
    <linearGradient id="_名称未設定グラデーション_56-3" data-name="名称未設定グラデーション 56" x1="3438.15" y1="5138.25" x2="4254.86" y2="5138.25" xlink:href="#_名称未設定グラデーション_56"/>
    <linearGradient id="_名称未設定グラデーション_56-4" data-name="名称未設定グラデーション 56" x1="4365.08" y1="5139.75" x2="5040.5" y2="5139.75" xlink:href="#_名称未設定グラデーション_56"/>
    <linearGradient id="_名称未設定グラデーション_56-5" data-name="名称未設定グラデーション 56" x1="5129.01" y1="5139.75" x2="5804.42" y2="5139.75" xlink:href="#_名称未設定グラデーション_56"/>
    <linearGradient id="_名称未設定グラデーション_56-6" data-name="名称未設定グラデーション 56" x1="5973.66" y1="4987.59" x2="6736.03" y2="4987.59" xlink:href="#_名称未設定グラデーション_56"/>
    <linearGradient id="_名称未設定グラデーション_56-7" data-name="名称未設定グラデーション 56" x1="6934.75" y1="5145.96" x2="7697.11" y2="5145.96" xlink:href="#_名称未設定グラデーション_56"/>
    <linearGradient id="_名称未設定グラデーション_56-8" data-name="名称未設定グラデーション 56" x1="7859.75" y1="5002.05" x2="8733.91" y2="5002.05" xlink:href="#_名称未設定グラデーション_56"/>
  </defs>
  <path class="cls-8" d="M1266.09,5004.89v-3.11c0-308.98,240.67-562.07,569.83-562.07,195.64,0,313.64,52.79,426.99,149.06l-150.61,181.66c-83.85-69.87-158.37-110.24-284.14-110.24-173.9,0-312.09,153.72-312.09,338.49v3.11c0,198.74,136.64,344.7,329.17,344.7,86.95,0,164.58-21.74,225.14-65.21v-155.27h-240.67v-206.51h472.02v252.51c0,218.99-179.24,395.52-398.21,392.34-20.89-.3-42.83-.49-66.05-.49-338.49,0-571.39-237.56-571.39-558.97Z"/>
  <path class="cls-3" d="M2505.01,5260.86v-538.78h236.01v464.25c0,111.79,52.79,169.24,142.85,169.24s147.51-57.45,147.51-169.24v-464.25h236.01v832.24h-236.01v-118c-54.34,69.87-237.26,174.72-349.5,133.53-175.07-64.24-176.86-118-176.86-308.98Z"/>
  <path class="cls-5" d="M3438.15,5142.85v-3.11c0-237.56,169.24-433.2,411.46-433.2,277.93,0,405.25,215.82,405.25,451.83,0,18.63-1.55,40.37-3.11,62.11h-579.15c23.29,107.14,97.82,163.03,203.4,163.03,79.19,0,136.64-24.84,201.85-85.4l162.25.57c7.96,91.71-185.48,268.04-337.64,271.15-249.93,5.1-464.31-172.35-464.31-426.99ZM4025.06,5072.98c-13.97-105.58-76.08-177.01-175.45-177.01s-161.48,69.87-180.11,177.01h355.56Z"/>
  <path class="cls-2" d="M4365.08,5444.07l100.92-155.27c90.06,65.21,184.77,99.37,262.4,99.37,68.32,0,99.37-24.84,99.37-62.11v-3.11c0-51.24-80.74-68.32-172.35-96.27-116.45-34.16-248.43-88.5-248.43-249.98v-3.11c0-169.24,136.64-263.96,304.33-263.96,105.58,0,220.48,35.71,310.54,96.27l-90.06,163.03c-82.29-48.13-164.58-77.63-225.14-77.63s-86.95,24.84-86.95,57.45v3.11c0,46.58,79.19,68.32,169.24,99.37,116.45,38.82,251.53,94.71,251.53,246.88v3.11c0,184.77-138.19,268.61-318.3,268.61-116.45,0-246.88-38.82-357.12-125.77Z"/>
  <path class="cls-4" d="M5129.01,5444.07l100.92-155.27c90.06,65.21,184.77,99.37,262.4,99.37,68.32,0,99.37-24.84,99.37-62.11v-3.11c0-51.24-80.74-68.32-172.35-96.27-116.45-34.16-248.43-88.5-248.43-249.98v-3.11c0-169.24,136.64-263.96,304.33-263.96,105.58,0,220.48,35.71,310.54,96.27l-90.06,163.03c-82.29-48.13-164.58-77.63-225.14-77.63s-86.95,24.84-86.95,57.45v3.11c0,46.58,79.19,68.32,169.24,99.37,116.45,38.82,251.53,94.71,251.53,246.88v3.11c0,184.77-138.19,268.61-318.3,268.61-116.45,0-246.88-38.82-357.12-125.77Z"/>
  <path class="cls-7" d="M5973.66,4420.86h236.01v419.22c54.34-69.87,124.21-133.53,243.77-133.53,178.56,0,282.59,118,282.59,308.98v538.78h-236.01v-464.25c0-111.79-52.79-169.24-142.85-169.24s-147.5,57.45-147.5,169.24v464.25h-236.01v-1133.46Z"/>
  <path class="cls-6" d="M6934.75,5260.86v-538.78h236.01v464.25c0,111.79,52.79,169.24,142.85,169.24s147.5-57.45,147.5-169.24v-464.25h236.01v832.24h-236.01v-118c-54.34,69.87-124.21,133.53-243.77,133.53-178.56,0-282.59-118-282.59-308.98Z"/>
  <path class="cls-1" d="M8095.76,5452.33v108.69h-236.01v-1133.46h236.01v420.78c57.45-77.63,136.64-135.08,259.3-135.08,194.09,0,378.86,152.16,378.86,430.09v3.11c0,277.93-181.66,430.09-378.86,430.09-125.77,0-203.4-57.45-259.3-124.21ZM8497.9,5146.45v-3.11c0-138.19-93.16-229.8-203.4-229.8s-201.85,91.61-201.85,229.8v3.11c0,138.19,91.61,229.8,201.85,229.8s203.4-90.06,203.4-229.8Z"/>
</svg>